<?xml version="1.0" encoding="utf-8"?>
<!-- Generator: Adobe Illustrator 27.3.1, SVG Export Plug-In . SVG Version: 6.00 Build 0)  -->
<svg version="1.1" id="Layer_1" xmlns="http://www.w3.org/2000/svg" xmlns:xlink="http://www.w3.org/1999/xlink" x="0px" y="0px"
	 viewBox="0 0 1000 1000" style="enable-background:new 0 0 1000 1000;" xml:space="preserve">
<style type="text/css">
	.st0{fill:url(#SVGID_1_);}
	.st1{fill:#FFFFFF;}
	.st2{font-family:'Chomsky';}
	.st3{font-size:246.3494px;}
	.st4{opacity:0.15;fill:#FFFFFF;stroke:#FFFFFF;stroke-width:6;stroke-miterlimit:10;}
</style>
<linearGradient id="SVGID_1_" gradientUnits="userSpaceOnUse" x1="930.4036" y1="930.4036" x2="69.5964" y2="69.5964">
	<stop  offset="0" style="stop-color:#302E2E"/>
	<stop  offset="1" style="stop-color:#03033A"/>
</linearGradient>
<path class="st0" d="M762.38,1000H237.62C106.38,1000,0,893.62,0,762.38V237.62C0,106.38,106.38,0,237.62,0h524.77
	C893.62,0,1000,106.38,1000,237.62v524.77C1000,893.62,893.62,1000,762.38,1000z"/>
<text transform="matrix(1.0737 0 0 1 84.1875 481.0649)"><tspan x="0" y="0" class="st1 st2 st3">TheBlog</tspan><tspan x="101.41" y="229.91" class="st1 st2 st3">Media</tspan></text>
<path class="st4" d="M743.38,965H256.62C134.22,965,35,865.78,35,743.38V256.62C35,134.22,134.22,35,256.62,35h486.77
	C865.78,35,965,134.22,965,256.62v486.77C965,865.78,865.78,965,743.38,965z"/>
</svg>
