<?xml version="1.0" encoding="UTF-8"?>
<svg id="Layer_1" data-name="Layer 1" xmlns="http://www.w3.org/2000/svg" viewBox="0 0 986.36 167.5">
  <defs>
    <style>
      .cls-1 {
        fill: #fff;
      }
    </style>
  </defs>
  <path class="cls-1" d="m14.87,42.94l-1.41,2.47c-5.49-2.83-10.01-9.15-10.01-18.12C3.45,14.95,12.43,4.21,26.71,4.21c12.41,0,31.84,12.28,45.23,12.28,3.15,0,6.18-1.75,6.18-5.53,0-6.04-6.69-6.84-11.19-7.55V.11c13.73-1.22,24.45,7.6,24.45,20.19s-9.32,18.99-19.92,18.99c-.04,0-.09,0-.13,0v20.68l9.8,11.47-9.8,11.47v26.26c7.17-5.65,12.43-13.95,15.3-22.6h2.81c.02.56.03,1.11.03,1.67,0,26.23-18.73,47.09-42.54,47.09S0,113.52,0,81.76c0-21.07,12.82-43.68,34.57-47.88l1.41,2.47c-2.52,1.99-10.18,8.7-14.81,20.32l32.31-16.12v52.16s-25.88,12.74-25.88,12.74c5.82,6.78,13.86,11.03,23.34,11.03,6.03,0,11.5-1.67,16.29-4.49v-29.26l-9.65-11.29,9.65-11.29v-21.21c-13.93-1.96-39.35-11.63-46.24-11.63-5.09,0-9.7,2.99-9.7,8.94,0,3.28,1.6,5.58,3.58,6.68Zm2.62,33.3c0,9.56,2.67,18.55,7.37,25.61l9.67-4.82v-42.01s-15.31,7.56-15.31,7.56c-1.07,4.08-1.73,8.63-1.73,13.67Z"/>
  <path class="cls-1" d="m130.16,121.02l4.56-3.71,2.63,3.87-18.29,14.83-15.09-14.98-5.63,4.12-2.5-3.96,9.85-7.41V35.53c0-2.8,0-6.55-7.04-9.06v-2.47s23.92-19.77,23.92-19.77h2.81v63.7l18.29-20.05,15.52,15.2,5.79-5.5,2.59,3.74-6.32,6v49.07c0,17.7-5.1,38.95-30.62,38.95-1.52,0-3.04-.13-4.55-.38v-4.12c10.85,0,16.18-16.71,16.18-34.45v-43.79l-8.73-8.46-8.16,8.95v42.34l4.77,5.6Z"/>
  <path class="cls-1" d="m170.08,121.15l6.94-6.59v-45.27l35.18-21.41,14.77,26.35v.82l-31.66,23.06v7.41l17.59,14,16.18-14.83,2.11,4.12-30.25,28.83-21.78-18.93-6.5,6.17-2.59-3.74Zm39.98-39.88l-11.93-20.21-2.81,1.85v29.29l14.74-10.94Z"/>
  <path class="cls-1" d="m244.29,82.82h-2.81c-1.46-3.07-2.24-6.59-2.24-10.11,0-8.16,3.76-13.66,8.62-16.33,2.91-1.6,6.08-2.23,9.32-2.77v-4.4s0-.04,0-.06c0-9.45,3.9-12.87,8.83-16.53,4.14-3.07,8.28-6.15,12.42-9.23-.54.04-1.09.07-1.64.07-6.74,0-11.43-4.06-18.1-4.06-5.08,0-8.73,3.04-10.21,7.62h-3.45c3.67-10.47,12.58-21.4,25.42-21.4,6.95,0,13.09,3.25,20.04,3.25,5.12,0,9.71-1.77,13.1-4.19l-.91,3.82-21.69,19.9c-3.15,2.89-4.84,6.21-4.85,12.65v42.69c-.01,21.21-12.83,31.83-26.54,35.85l-1.37-4.12c8.15-5.45,8.97-16.46,8.97-30.93,0-3.89,0-7.77,0-11.66h-4.49c-5.35,0-9.44,3.28-8.41,9.94Zm108.92-19.01v43.13l-49.05,29.69c-8.8-5.37-18.7-8.46-28.61-8.46-13.18,0-23.24,5.3-30.29,13.3h-3.57c7.81-15.92,20.96-28.48,37.57-32.32,2.37-4.02,3.83-8.98,3.83-15.79v-53.69c10.9-16.42,26.29-29.78,44.58-36.89l23.74,32.6-18.26,15c7.56,3.24,14.35,7.93,20.04,13.44Zm-44.81-45.57c-3.23,2.87-5.76,7.22-5.77,12.53v44.98c0,16.74-7.78,24.6-15.66,32.28,1-.06,2.02-.1,3.04-.1,6.85,0,13,1.53,18.39,4.08V18.24Zm4.21,43.01l19.52-17.06-19.52-26.9v43.96Zm0,24.23l19.29-11.4c-5.74-4.67-12.3-8.69-19.29-11.6v23Zm0,18.03l21.38-12.63v-12.52l-21.38,12.63c0,4.17,0,8.34,0,12.52Zm9.38,18.37l12-6.53v-18.96l-21.38,12.63v5.26c3.5,2.15,6.64,4.74,9.38,7.59Z"/>
  <path class="cls-1" d="m394.47,122l4.22-4.12,2.11,3.29-18.29,14.83-15.48-15.65-5.63,4.12-2.11-3.29,9.85-7.41V38.96c0-8.14-.6-10.03-7.04-12.5v-2.47s23.92-19.77,23.92-19.77h2.81v111.18l5.63,6.59Z"/>
  <path class="cls-1" d="m401.41,120.6l7.51-7.13c0-14.72,0-29.45,0-44.17l33.07-22.24,21.11,18.94v46.94l-32.36,23.06-20.64-17.46-6.1,5.79-2.59-3.74Zm43.4,2.23v-49.42l-16.89-13.18v49.42l16.89,13.18Z"/>
  <path class="cls-1" d="m515.74,143.14c0-6.68-3.85-8.8-5.11-18.19l-13.66,11.06-21.11-17.3v-49.42l33.07-22.24,19.29,16.92,6.24-5.92,2.59,3.74-7.01,6.65v43.68c0,14.18,4.21,14.08,4.21,20.48,0,7.45-6.27,9.33-10.07,12.48l-27.14,22.42c-3.13-5.47-8.15-9.44-15.03-9.44-3.95,0-7.91,1.5-11.07,4.3l-2.11-1.65c3.27-10.15,11.96-18.96,23.36-18.96,6.76,0,13.48,3.35,18.15,9.08,3.18-.45,5.4-3.54,5.4-7.69Zm-5.5-24.78l.1-42.42-16.89-13.18v45.24l16.81,12.31c-.02-.62-.03-1.27-.03-1.95Z"/>
  <path class="cls-1" d="m631.72,5.56l2.82,1.65c-10.71,14-16.14,17.2-23.08,17.2-5.57,0-9.35-3.36-14.76-3.36-4.8,0-7.97,3.44-9.29,7.57l-2.81-1.65c4.09-15.1,13.26-21.49,20.02-21.49,7.42,0,11.98,5.07,19.64,5.07,3.67,0,5.59-2.72,7.48-5Zm-33.1,71.1h4.84v12.98c0,7.35-.58,15.11-6.93,15.92l.72,3.28c11.82-.97,25.27-7.3,25.27-24.32v-38.4c0-9.88,3.58-15.87,8.47-20.18v62.64c0,15.95-3.41,24.66-24.19,24.66-9.85,0-17.32,8.13-17.32,20.17,0,10.41,6.56,20.04,15.79,20.04.6,0,1.21-.04,1.81-.14v-4.11c-.14,0-.29.01-.43.01-3.74,0-7.34-2.55-7.34-6.9,0-6.56,6.61-7.34,11.81-7.8,13.23-1.16,24.1-8.15,24.1-25.09v-.13l-.02-16.5v-6.59c4.68-3.96,11.2-3.56,15.51,1.03v26.54l-9.15,7.41,1.41,2.47,4.92-4.12,16.89,16.47,24.62-21.41-2.11-2.47-4.66,3.64v-29.59c4.58-3.85,10.92-3.55,15.22.77v27.4l-8.44,6.84,1.41,2.47,4.92-4.12,16.89,16.47,22.42-21.41-2.11-2.47-8.31,6.5-6.38-6.5V32.19l7.64-7.25-2.59-3.74-6.11,5.8-18.61-19.44-15.94,11.2v-9.6h-4.21v12.55l-7.98,5.61c-6.81-6.61-13.63-13.2-20.44-19.81l-29.4,21.79c-11.73,8.69-15.97,16.21-16.92,27.46-12.2,1.7-18.53,9.33-18.53,19.71,0,3.51.78,7.03,2.24,10.11h2.81c-1-6.44,2.89-9.94,8.41-9.94Zm36.58-15.73V26.39l15.51,12.43v21.08c-4.31,4.59-10.84,4.97-15.51,1.02Zm0,5c4.72,3.88,11.18,3.45,15.51-1v17.27c-4.54-4.7-10.99-4.66-15.51-.98v-15.28Zm43.23,52.2l-8.72-7.66V32.7s8.72-6.18,8.72-6.18c0,30.54,0,61.07,0,91.61Zm4.21-57.18V25.31l15.22,14.33v20.53c-4.3,4.32-10.65,4.61-15.22.77Zm0,5c4.62,3.78,10.9,3.43,15.22-.75v16.73c-4.52-4.42-10.78-4.32-15.22-.73v-15.24Z"/>
  <path class="cls-1" d="m737.19,121.15l6.94-6.59v-45.27l35.18-21.41,14.77,26.35v.82l-31.66,23.06v7.41l17.59,14,16.18-14.83,2.11,4.12-30.25,28.83-21.78-18.93-6.5,6.17-2.59-3.74Zm39.98-39.88l-11.93-20.21-2.81,1.85v29.29l14.74-10.94Z"/>
  <path class="cls-1" d="m810.79,40.1l-3,.6V9.89s50.62,52.14,50.62,52.14l5.42-5.15,2.59,3.74-6.28,5.96-.07,48.7-32.18,22.25-21.17-17v-52.82s17.88-12.87,17.88-12.87l-13.82-14.73Zm14.87,71.41l15.56,12.67v-51.63s-15.56-16.58-15.56-16.58v55.55Z"/>
  <path class="cls-1" d="m915.91,119.53l-21.11,17.29-14.07-14.82-4.93,4.12-2.11-3.29,9.15-7.41v-45.3l-4.92-7.41-5.63,4.12-2.11-3.29,19.7-15.65,11.26,15.65v51.89l4.93,5.76,6.33-4.94,3.52,3.29Zm-23.75-109.24l12.51,16.68-14.02,14.41-12.51-16.68,14.02-14.41Z"/>
  <path class="cls-1" d="m919.46,114.19c0-9.2,6.04-17.94,16.95-24.75-6.75-3.42-11.98-8.39-11.98-16.33s4.83-11.87,9.17-14.52l16.18-9.88,21.66,16.35,5.92-5.62,2.59,3.74-7.66,7.27v43.33l7.04,8.24,6.33-4.94.7,3.3-20.43,16.42-11.21-13.15-15.49,13.18c-9.3-1.42-19.77-9.8-19.77-22.64Zm9.22-42.08c0,11.02,15.52,15.59,25.33,18.25v-16.12l-17.32-12.49c-4.32,2.69-8.01,5.84-8.01,10.36Zm10.4,18.57c-.97,1.68-1.86,4.61-1.86,7.88,0,9.75,4.63,23.45,13.74,23.45,1.03,0,2.06-.18,3.05-.55v-26c-4.67-1.25-10.05-2.69-14.93-4.79Z"/>
</svg>